<?xml version="1.0" encoding="UTF-8" standalone="no"?>
<!-- Created with Inkscape (http://www.inkscape.org/) -->

<svg
   width="4096"
   height="4096"
   viewBox="0 0 1083.7333 1083.7333"
   version="1.1"
   id="svg1"
   inkscape:version="1.4.2 (ebf0e940d0, 2025-05-08)"
   sodipodi:docname="logo.svg"
   inkscape:export-filename="logo.png"
   inkscape:export-xdpi="95.531395"
   inkscape:export-ydpi="95.531395"
   xmlns:inkscape="http://www.inkscape.org/namespaces/inkscape"
   xmlns:sodipodi="http://sodipodi.sourceforge.net/DTD/sodipodi-0.dtd"
   xmlns:xlink="http://www.w3.org/1999/xlink"
   xmlns="http://www.w3.org/2000/svg"
   xmlns:svg="http://www.w3.org/2000/svg">
  <sodipodi:namedview
     id="namedview1"
     pagecolor="#030303"
     bordercolor="#000000"
     borderopacity="0.0745098"
     inkscape:showpageshadow="2"
     inkscape:pageopacity="0.0"
     inkscape:pagecheckerboard="true"
     inkscape:deskcolor="#d1d1d1"
     inkscape:document-units="px"
     inkscape:zoom="0.14196429"
     inkscape:cx="2778.8679"
     inkscape:cy="1933.5849"
     inkscape:window-width="1904"
     inkscape:window-height="1013"
     inkscape:window-x="0"
     inkscape:window-y="0"
     inkscape:window-maximized="0"
     inkscape:current-layer="svg1"
     showgrid="true" />
  <defs
     id="defs1">
    <linearGradient
       id="linearGradient42"
       inkscape:collect="always">
      <stop
         style="stop-color:#1a1a1a;stop-opacity:1;"
         offset="0"
         id="stop42" />
      <stop
         style="stop-color:#4d4d4d;stop-opacity:1;"
         offset="1"
         id="stop43" />
    </linearGradient>
    <inkscape:path-effect
       effect="fillet_chamfer"
       id="path-effect42"
       is_visible="true"
       lpeversion="1"
       nodesatellites_param="F,0,0,1,0,2.6458333,0,1 @ F,0,0,1,0,2.6458333,0,1 @ F,0,0,1,0,2.6458333,0,1 @ F,0,0,1,0,2.6458333,0,1 @ F,0,0,1,0,2.6458333,0,1 @ F,0,0,1,0,2.6458333,0,1 @ F,0,0,1,0,2.6458333,0,1 @ F,0,0,1,0,2.6458333,0,1 @ F,0,0,1,0,2.6458333,0,1 @ F,0,0,1,0,2.6458333,0,1 | F,0,0,1,0,2.6458333,0,1 @ F,0,0,1,0,2.6458333,0,1 @ F,0,0,1,0,2.6458333,0,1 @ F,0,0,1,0,2.6458333,0,1 @ F,0,0,1,0,2.6458333,0,1 @ F,0,0,1,0,2.6458333,0,1"
       radius="10"
       unit="px"
       method="auto"
       mode="F"
       chamfer_steps="1"
       flexible="false"
       use_knot_distance="true"
       apply_no_radius="true"
       apply_with_radius="true"
       only_selected="false"
       hide_knots="false" />
    <inkscape:path-effect
       effect="fillet_chamfer"
       id="path-effect41"
       is_visible="true"
       lpeversion="1"
       nodesatellites_param="F,0,0,1,0,0,0,1 @ F,0,0,1,0,0,0,1 @ F,0,0,1,0,0,0,1 @ F,0,0,1,0,0,0,1 @ F,0,0,1,0,0,0,1 @ F,0,0,1,0,0,0,1 @ F,0,0,1,0,0,0,1 @ F,0,0,1,0,0,0,1 @ F,0,0,1,0,0,0,1 @ F,0,0,1,0,0,0,1 | F,0,0,1,0,0,0,1 @ F,0,0,1,0,0,0,1 @ F,0,0,1,0,0,0,1 @ F,0,0,1,0,0,0,1 @ F,0,0,1,0,0,0,1 @ F,0,0,1,0,0,0,1"
       radius="0"
       unit="px"
       method="auto"
       mode="F"
       chamfer_steps="1"
       flexible="false"
       use_knot_distance="true"
       apply_no_radius="true"
       apply_with_radius="true"
       only_selected="false"
       hide_knots="false" />
    <inkscape:path-effect
       effect="fillet_chamfer"
       id="path-effect39"
       is_visible="true"
       lpeversion="1"
       nodesatellites_param="F,0,0,1,0,0,0,1 @ F,0,0,1,0,0,0,1 @ F,0,0,1,0,0,0,1 @ F,0,0,1,0,0,0,1 @ F,0,0,1,0,0,0,1 @ F,0,0,1,0,0,0,1 @ F,0,0,1,0,0,0,1 @ F,0,0,1,0,0,0,1 @ F,0,0,1,0,0,0,1 @ F,0,0,1,0,0,0,1 | F,0,0,1,0,0,0,1 @ F,0,0,1,0,0,0,1 @ F,0,0,1,0,0,0,1 @ F,0,0,1,0,0,0,1 @ F,0,0,1,0,0,0,1 @ F,0,0,1,0,0,0,1"
       radius="0"
       unit="px"
       method="auto"
       mode="F"
       chamfer_steps="1"
       flexible="false"
       use_knot_distance="true"
       apply_no_radius="true"
       apply_with_radius="true"
       only_selected="false"
       hide_knots="false" />
    <linearGradient
       id="linearGradient34"
       inkscape:collect="always">
      <stop
         style="stop-color:#1a1a1a;stop-opacity:0.94999999;"
         offset="0"
         id="stop35" />
      <stop
         style="stop-color:#4d4d4d;stop-opacity:1;"
         offset="1"
         id="stop36" />
    </linearGradient>
    <linearGradient
       inkscape:collect="always"
       xlink:href="#linearGradient34"
       id="linearGradient36"
       x1="-278.15759"
       y1="-234.65759"
       x2="488.15756"
       y2="531.65759"
       gradientUnits="userSpaceOnUse"
       gradientTransform="matrix(0.96473213,0,0,0.96473213,3.7037207,5.2382608)" />
    <linearGradient
       inkscape:collect="always"
       xlink:href="#linearGradient42"
       id="linearGradient43"
       x1="-55.34568"
       y1="-11.844429"
       x2="265.34561"
       y2="308.84686"
       gradientUnits="userSpaceOnUse" />
  </defs>
  <path
     id="path26"
     style="fill:url(#linearGradient43);fill-opacity:1;stroke:#cccccc;stroke-width:9.26042;stroke-dasharray:none;stroke-opacity:1"
     inkscape:label="a letter"
     d="m 102.3542,-75.62347 c -121.678511,1.408542 -220.0512,99.788128 -221.45859,221.47768 -0.0169,1.46114 -0.0169,3.8304 0,5.29154 1.40742,121.6895 99.780103,220.06931 221.45859,221.47769 1.46114,0.0169 3.8304,0.017 5.29154,-8.4e-4 63.74952,-0.7783 124.86016,-29.65015 166.67829,-77.3376 0.96344,-1.09865 1.73268,-0.81497 1.73268,0.64628 v 74.06164 a 2.6458333,2.6458333 45 0 0 2.64583,2.64583 l 47.07982,0 a 2.6458333,2.6458333 135 0 0 2.64583,-2.64583 V 169.18347 c 0,-1.46125 0.0931,-3.82679 0.1891,-5.28488 0.27708,-4.20851 0.44022,-8.4601 0.48771,-12.75283 0.0162,-1.46116 0.0162,-3.83041 -5.5e-4,-5.29156 -0.0481,-4.18941 -0.21031,-8.35101 -0.48511,-12.48219 -0.097,-1.45802 -0.28213,-3.82003 -0.41345,-5.27536 -2.90955,-32.24553 -12.64968,-62.520915 -27.75878,-89.369276 -0.71664,-1.273445 -1.90291,-3.324329 -2.64944,-4.580487 -38.64511,-65.026777 -109.24581,-108.83495 -190.15192,-109.770394 -1.46115,-0.01689 -3.83041,-0.01688 -5.29155,3.7e-5 z m 5.2915,52.37868 c 87.51804,1.320705 159.16622,68.109239 168.15445,153.56819 0.15285,1.45322 0.36451,3.81307 0.47284,5.27029 0.25228,3.39381 0.40609,6.81468 0.45824,10.26056 0.0221,1.46107 0.0221,3.83039 -4e-5,5.29146 -0.0522,3.44586 -0.20624,6.86676 -0.45838,10.26054 -0.10827,1.45722 -0.31981,3.81709 -0.47266,5.27031 -8.98823,85.45902 -80.63641,152.24743 -168.15445,153.56818 -1.46107,0.0221 -3.83039,0.022 -5.29146,-4e-5 -92.7539091,-1.40141 -167.681888,-76.33667 -169.082476,-169.09899 -0.02206,-1.46107 -0.02206,-3.83039 0,-5.29146 1.400589,-92.762328 76.3285673,-167.69759 169.082476,-169.098991 1.46107,-0.02207 3.83039,-0.0221 5.29146,-4.9e-5 z"
     transform="matrix(0.83112051,0,0,0.83112051,457.25084,421.09317)"
     inkscape:original-d="M 104.99997,-75.638787 C -18.778228,-75.63785 -119.1197,24.71055 -119.11968,148.49998 c 1e-5,123.78937 100.341475,224.13801 224.11965,224.13877 65.58884,3.5e-4 128.63364,-29.80785 171.05674,-79.3533 v 79.3533 h 52.37148 V 166.53764 c 0.45934,-5.92738 0.69143,-11.94176 0.69143,-18.03766 0,-5.98004 -0.23203,-11.90485 -0.69143,-17.76687 C 325.74976,96.574749 315.4122,64.568532 299.13592,36.429305 260.38443,-30.566042 187.95661,-75.639313 104.99997,-75.638787 Z m 0,52.374063 c 89.61621,-0.0011 163.20143,68.641619 171.05674,156.221464 0.45933,5.12012 0.69453,10.30358 0.69453,15.54324 0,5.2396 -0.23572,10.42319 -0.69453,15.54324 -7.85531,87.57992 -81.44053,156.22251 -171.05674,156.22146 -94.854148,-5.9e-4 -171.748156,-76.90199 -171.748168,-171.7647 1.2e-5,-94.862718 76.89402,-171.764119 171.748168,-171.764704 z"
     inkscape:path-effect="#path-effect42" />
  <g
     inkscape:label="Layer 1"
     inkscape:groupmode="layer"
     id="layer1"
     transform="translate(439.51789,396.01343)">
    <path
       d="m 6.8179691,-374.19003 c -15.3233773,-0.65381 -37.8528671,3.55871 -73.3199621,15.02709 -162.135277,52.42687 -16.070874,69.36777 -139.314347,186.6789 -123.24348,117.311148 -133.5947,-28.80805 -193.5365,130.152478 -59.94179,158.960512 44.4245,55.763776 59.65661,224.889532 15.23212,169.12585 -105.90704,86.08266 -18.51793,231.8763 87.38908,145.79359 71.46611,0.1733 213.7037,93.75888 142.2376227,93.58528 1.53241,136.15215 170.446637,158.99337 C 194.85034,690.02768 70.627753,611.63725 232.76302,559.21033 394.89827,506.78346 340.58144,642.90576 463.82492,525.59461 587.0684,408.28347 448.09021,456.15042 508.03196,297.18996 567.97376,138.22938 640.94549,265.40505 625.71336,96.279245 610.48124,-72.846506 561.39816,65.236883 474.00906,-80.556756 386.61996,-226.35037 531.93252,-203.88741 389.69488,-297.47266 c -142.23759,-93.58526 -64.46135,30.7335 -233.37552,7.89233 C 24.355125,-307.425 61.544308,-371.85499 6.8179691,-374.19003 Z m 31.7150659,168.84496 c 37.047983,1.58074 11.873533,45.19796 101.209035,57.27823 114.3494,15.46274 61.69646,-68.698 157.98669,-5.34381 96.29029,63.354216 -2.08179,48.15105 57.07784,146.8486219 59.15956,98.6975161 92.38639,5.2189156 102.69806,119.7115981 10.31165,114.49267 -39.08782,28.39889 -79.66644,136.01001 -40.57873,107.61112 53.50586,75.20605 -29.92594,154.62189 -83.43191,79.41591 -46.66162,-12.7344 -156.42199,22.75688 C 81.72998,462.0297 165.82604,515.09593 51.476652,499.6332 -62.872811,484.17048 32.378744,455.35379 -63.911526,391.99956 c -96.290254,-63.35419 -85.510534,35.228 -144.670124,-63.46963 -59.15958,-98.69751 22.84732,-42.48027 12.53567,-156.97301 -10.31164,-114.492673 -80.96261,-44.63351 -40.38396,-152.24464 40.57866,-107.611124 47.58657,-8.691532 131.01842,-88.107437 83.431848,-79.415833 -15.44852,-90.884783 94.311817,-126.376093 24.010076,-7.76372 39.259311,-10.61643 49.632738,-10.17382 z"
       style="fill:url(#linearGradient36);fill-opacity:1;stroke:#cccccc;stroke-width:12.7626;stroke-dasharray:none;stroke-opacity:1"
       id="path29"
       inkscape:label="Wheel" />
  </g>
</svg>
